# xmcd
#
# Track frame offsets:
#	150
#	16220
#	29357
#	44740
#	61392
#	77067
#	95972
#	112895
#	126635
#	142455
#	158085
#	176782
#	192875
#	207855
#	229152
#	242912
#	257345
#	274660
#	275337
#	276015
#	276692
#	297205
#	313150
#	313827
#	314505
#	315182
#	316202
#	317355
#	318230
#	319322
#	320622
#	322375
#	323852
#	325337
#	326877
#	327907
#	329210
#	330590
#	331430
#	332325
#	333662
#	335022
#
# Disc length: 4476 seconds
# Revision: 1
# Processed by: cddbd v1.5.2PL0 Copyright (c) Steve Scherf et al.
# Submitted via: dBpowerAMP V12.0
#
DISCID=a8117a2a
DTITLE=Various Artist - TM Century GoldDisc 1173N
DYEAR=1996
DGENRE=Country
TTITLE0=Mindy McCready - Then Thousand Angels
TTITLE1=Jeff Carson - Holding Onto Something
TTITLE2=Paul Brandt - My Heart Has A History
TTITLE3=Sawyer Brown - Treat Her Right
TTITLE4=David Lee Murphy - Every Time I Get Around You
TTITLE5=Reba McEntire - Starting Over Again [Remix Version]
TTITLE6=Sammy Kershaw - Meant To Be
TTITLE7=Tracy Lawrence - Time Marches On
TTITLE8=Brooks and Dunn - My Maria
TTITLE9=Vince Gill - High Lonesome Sound
TTITLE10=Garth Brooks - The Change
TTITLE11=Patty Loveless - A Thousand Times A Day
TTITLE12=Alan Jackson - Home
TTITLE13=Wynonna - Heaven Help My Heart [Single Mix]
TTITLE14=Shania Twain - No One Needs To Know
TTITLE15=Mark Chesnutt - Woman, Sensuous Woman
TTITLE16=Clint Black - Desperado
TTITLE17=blank - blank
TTITLE18=blank - blank
TTITLE19=blank - blank
TTITLE20=Brooks and Dunn - My Maria [Extended Remix]
TTITLE21=Wynonna - Heaven Help My Heart [Radio Edit]
TTITLE22=Hook Track - Hook Track
TTITLE23=Hook Track - Hook Track
TTITLE24=Hook Track - Hook Track
TTITLE25=Hook Track - Hook Track
TTITLE26=Hook Track - Hook Track
TTITLE27=Hook Track - Hook Track
TTITLE28=Hook Track - Hook Track
TTITLE29=Hook Track - Hook Track
TTITLE30=Hook Track - Hook Track
TTITLE31=Hook Track - Hook Track
TTITLE32=Hook Track - Hook Track
TTITLE33=Hook Track - Hook Track
TTITLE34=Hook Track - Hook Track
TTITLE35=Hook Track - Hook Track
TTITLE36=Hook Track - Hook Track
TTITLE37=Hook Track - Hook Track
TTITLE38=Hook Track - Hook Track
TTITLE39=Hook Track - Hook Track
TTITLE40=Hook Track - Hook Track
TTITLE41=Hook Track - Hook Track
EXTD=
EXTT0=
EXTT1=
EXTT2=
EXTT3=
EXTT4=
EXTT5=
EXTT6=
EXTT7=
EXTT8=
EXTT9=
EXTT10=
EXTT11=
EXTT12=
EXTT13=
EXTT14=
EXTT15=
EXTT16=
EXTT17=
EXTT18=
EXTT19=
EXTT20=
EXTT21=
EXTT22=
EXTT23=
EXTT24=
EXTT25=
EXTT26=
EXTT27=
EXTT28=
EXTT29=
EXTT30=
EXTT31=
EXTT32=
EXTT33=
EXTT34=
EXTT35=
EXTT36=
EXTT37=
EXTT38=
EXTT39=
EXTT40=
EXTT41=
PLAYORDER=
